<svg width="32" height="32" viewBox="0 0 32 32" fill="none" xmlns="http://www.w3.org/2000/svg">
  <!-- Circular background -->
  <circle cx="16" cy="16" r="14" fill="#2563eb"/>
  
  <!-- Stylized "G" with car element -->
  <path d="M9 11c0-1.7 1.3-3 3-3h6c.8 0 1.5.7 1.5 1.5s-.7 1.5-1.5 1.5h-4.5v1.5h3c.8 0 1.5.7 1.5 1.5s-.7 1.5-1.5 1.5h-3v1.5h4.5c.8 0 1.5.7 1.5 1.5s-.7 1.5-1.5 1.5h-6c-1.7 0-3-1.3-3-3V11z" fill="white"/>
  
  <!-- Car wheels accent -->
  <circle cx="12" cy="22" r="1.5" fill="#059669"/>
  <circle cx="20" cy="22" r="1.5" fill="#059669"/>
</svg>